<svg width="33" height="25" viewBox="0 0 33 25" fill="none" xmlns="http://www.w3.org/2000/svg">
<path fill-rule="evenodd" clip-rule="evenodd" d="M1.05127 1.19803C1.13043 0.955195 1.29287 0.748153 1.50988 0.613477C1.7269 0.478802 1.98453 0.42516 2.23727 0.462028C2.83727 0.487028 3.43727 0.462028 4.03127 0.468028C4.8866 0.446976 5.72193 0.728393 6.39016 1.26272C7.05839 1.79705 7.51666 2.55002 7.68427 3.38903C7.75127 3.67503 7.82727 3.96003 7.87827 4.24803C7.91527 4.45403 8.00327 4.52403 8.22127 4.52303C9.74227 4.51303 11.2633 4.52303 12.7833 4.52303C17.7413 4.52303 22.6989 4.52303 27.6563 4.52303C28.5073 4.52303 28.8913 5.02303 28.6953 5.85503L27.5833 10.588C27.6943 10.635 27.8023 10.679 27.9093 10.725C29.061 11.1605 30.0678 11.9098 30.8156 12.888C31.5634 13.8663 32.0222 15.0344 32.1403 16.26C32.3429 18.0029 31.8604 19.7564 30.7945 21.1502C29.7286 22.544 28.1627 23.469 26.4276 23.73C24.6925 23.991 22.9238 23.5675 21.4951 22.5489C20.0663 21.5304 19.0893 19.9964 18.7703 18.271C18.7343 18.071 18.6943 17.971 18.4583 17.971C15.9943 17.98 13.5313 17.978 11.0673 17.98C10.9893 17.98 10.9103 17.995 10.8123 18.004C10.8123 18.534 10.7853 19.051 10.8203 19.563C10.8418 19.768 10.9425 19.9564 11.1008 20.0883C11.2592 20.2202 11.4628 20.285 11.6683 20.269C12.8953 20.269 14.1223 20.269 15.3483 20.269C15.5321 20.2559 15.7159 20.2961 15.8775 20.3848C16.039 20.4735 16.1716 20.6069 16.2593 20.769C16.3367 20.9015 16.3795 21.0513 16.3835 21.2047C16.3875 21.3581 16.3526 21.51 16.2822 21.6463C16.2118 21.7826 16.108 21.8989 15.9805 21.9844C15.8531 22.0698 15.7061 22.1216 15.5533 22.135C14.1533 22.171 12.7533 22.211 11.3593 22.112C11.0162 22.0981 10.6794 22.0146 10.3696 21.8665C10.0598 21.7185 9.78328 21.5089 9.55693 21.2507C9.33059 20.9925 9.15911 20.6909 9.05293 20.3643C8.94675 20.0378 8.90808 19.693 8.93927 19.351C8.93651 17.3842 8.6516 15.4279 8.09327 13.542C7.36127 10.306 6.60627 7.07903 5.86127 3.85103C5.79912 3.41293 5.57333 3.01464 5.22933 2.73633C4.88534 2.45802 4.44869 2.32035 4.00727 2.35103C3.42927 2.34603 2.85027 2.32803 2.27427 2.35103C2.01714 2.39113 1.75408 2.33985 1.53083 2.20612C1.30758 2.07239 1.13825 1.86466 1.05227 1.61903L1.05127 1.19803ZM8.40127 6.40903C8.41627 6.51503 8.42127 6.58503 8.43727 6.65303C9.1406 9.71303 9.84327 12.773 10.5453 15.833C10.5933 16.042 10.6803 16.101 10.8913 16.101C13.4046 16.0924 15.9183 16.0924 18.4323 16.101C18.6413 16.101 18.7273 16.05 18.7683 15.827C19.046 14.2662 19.8653 12.8534 21.082 11.8371C22.2988 10.8208 23.835 10.2663 25.4203 10.271C25.6573 10.271 25.7543 10.202 25.8053 9.97103C26.0573 8.85503 26.3253 7.74203 26.5853 6.62703C26.5964 6.55488 26.6024 6.48203 26.6033 6.40903H8.40127ZM25.4243 21.932C26.3934 21.932 27.3408 21.6446 28.1466 21.1062C28.9524 20.5678 29.5804 19.8025 29.9513 18.9072C30.3221 18.0118 30.4192 17.0266 30.2301 16.0761C30.041 15.1256 29.5744 14.2525 28.8891 13.5672C28.2038 12.8819 27.3307 12.4152 26.3802 12.2262C25.4297 12.0371 24.4445 12.1341 23.5491 12.505C22.6538 12.8759 21.8885 13.5039 21.3501 14.3097C20.8116 15.1155 20.5243 16.0629 20.5243 17.032C20.5243 18.3316 21.0405 19.5779 21.9594 20.4969C22.8784 21.4158 24.1247 21.932 25.4243 21.932Z" fill="black" stroke="white" stroke-width="0.5"/>
<path fill-rule="evenodd" clip-rule="evenodd" d="M17.5032 10.2281C16.1952 10.2281 14.8872 10.2281 13.5792 10.2281C13.4268 10.2406 13.2736 10.2153 13.1333 10.1545C12.9929 10.0938 12.8697 9.99935 12.7745 9.87964C12.6793 9.75992 12.615 9.61859 12.5874 9.46814C12.5598 9.3177 12.5697 9.16277 12.6162 9.01706C12.6608 8.85413 12.7514 8.7075 12.8771 8.59471C13.0029 8.48192 13.1584 8.40774 13.3252 8.38106C13.445 8.35966 13.5666 8.34961 13.6882 8.35106C16.2336 8.35106 18.7789 8.35106 21.3242 8.35106C21.5526 8.31599 21.7861 8.36199 21.9841 8.48109C22.1821 8.60019 22.3322 8.78487 22.4082 9.00306C22.4556 9.14053 22.4696 9.28729 22.4492 9.43124C22.4287 9.5752 22.3744 9.71224 22.2906 9.83107C22.2068 9.94991 22.096 10.0471 21.9673 10.1148C21.8386 10.1824 21.6956 10.2185 21.5502 10.2201C20.6782 10.2401 19.8062 10.2291 18.9342 10.2311L17.5032 10.2281Z" fill="black" stroke="white" stroke-width="0.5"/>
<path fill-rule="evenodd" clip-rule="evenodd" d="M15.4132 11.9111C16.0212 11.9111 16.6282 11.9111 17.2362 11.9111C17.3658 11.8993 17.4964 11.9146 17.6198 11.9558C17.7432 11.997 17.8568 12.0633 17.9533 12.1505C18.0499 12.2377 18.1273 12.344 18.1808 12.4626C18.2343 12.5812 18.2626 12.7096 18.2641 12.8397C18.2655 12.9698 18.2401 13.0988 18.1892 13.2186C18.1384 13.3383 18.0634 13.4463 17.9688 13.5356C17.8742 13.625 17.7622 13.6938 17.6397 13.7378C17.5173 13.7817 17.387 13.7999 17.2572 13.7911C16.0319 13.8004 14.8062 13.8004 13.5802 13.7911C13.4506 13.8008 13.3203 13.7836 13.1976 13.7405C13.0749 13.6974 12.9625 13.6294 12.8674 13.5407C12.7723 13.4521 12.6966 13.3447 12.645 13.2253C12.5934 13.106 12.5671 12.9772 12.5678 12.8472C12.5684 12.7172 12.5959 12.5887 12.6486 12.4698C12.7013 12.351 12.7781 12.2443 12.874 12.1565C12.97 12.0688 13.0831 12.0019 13.2062 11.96C13.3292 11.9181 13.4597 11.9021 13.5892 11.9131C14.1972 11.9131 14.8042 11.9131 15.4122 11.9131L15.4132 11.9111Z" fill="black" stroke="white" stroke-width="0.5"/>
<path fill-rule="evenodd" clip-rule="evenodd" d="M24.4483 17.9659C23.8263 17.9659 23.2093 17.9849 22.5943 17.9609C22.4566 17.9584 22.3213 17.9246 22.1986 17.8621C22.0759 17.7995 21.969 17.7099 21.8861 17.6C21.8031 17.4901 21.7463 17.3627 21.7198 17.2276C21.6933 17.0924 21.698 16.953 21.7333 16.8199C21.7737 16.6244 21.8787 16.4483 22.0315 16.3198C22.1842 16.1914 22.3758 16.1181 22.5753 16.1119C23.0913 16.0899 23.6083 16.0999 24.1253 16.0959H24.4853C24.4853 15.4679 24.4733 14.8719 24.4853 14.2759C24.4801 14.1178 24.515 13.9608 24.5869 13.8199C24.6587 13.6789 24.7651 13.5584 24.8962 13.4697C25.0272 13.381 25.1786 13.327 25.3362 13.3127C25.4938 13.2984 25.6525 13.3243 25.7973 13.3879C25.9732 13.4589 26.1224 13.5832 26.2239 13.7434C26.3254 13.9036 26.3742 14.0916 26.3633 14.2809C26.3633 14.8589 26.3683 15.4369 26.3713 16.0149C26.3775 16.0434 26.3855 16.0715 26.3953 16.0989H26.9383C27.3743 16.0989 27.8103 16.0889 28.2453 16.1089C28.4869 16.1108 28.7179 16.2081 28.8878 16.3798C29.0578 16.5514 29.1529 16.7834 29.1523 17.0249C29.1544 17.1471 29.1323 17.2685 29.0872 17.382C29.0421 17.4956 28.9749 17.5991 28.8895 17.6865C28.8041 17.7739 28.7023 17.8436 28.5898 17.8913C28.4773 17.9391 28.3565 17.9641 28.2343 17.9649C27.7283 17.9849 27.2213 17.9729 26.7143 17.9749H26.3633C26.3633 18.5749 26.3633 19.1449 26.3633 19.7109C26.377 19.842 26.3631 19.9746 26.3224 20.1C26.2818 20.2255 26.2154 20.341 26.1274 20.4392C26.0394 20.5375 25.9319 20.6162 25.8117 20.6704C25.6915 20.7245 25.5613 20.753 25.4294 20.7538C25.2976 20.7546 25.167 20.7279 25.0461 20.6752C24.9253 20.6226 24.8167 20.5453 24.7275 20.4482C24.6383 20.3511 24.5704 20.2364 24.5282 20.1115C24.486 19.9866 24.4703 19.8542 24.4823 19.7229C24.4773 19.1749 24.4823 18.6229 24.4773 18.0799C24.4707 18.0412 24.461 18.0031 24.4483 17.9659Z" fill="black" stroke="white" stroke-width="0.5"/>
</svg>
