<svg width="36" height="31" viewBox="0 0 36 31" fill="none" xmlns="http://www.w3.org/2000/svg">
<path d="M17.9723 29.458C17.7527 29.4576 17.5353 29.4139 17.3326 29.3293C17.13 29.2447 16.946 29.1209 16.7913 28.965L3.8093 15.965C2.17567 14.3223 1.25867 12.0998 1.25867 9.78303C1.25867 7.4663 2.17567 5.24374 3.8093 3.60103C5.44895 1.96734 7.66921 1.05005 9.9838 1.05005C12.2984 1.05005 14.5187 1.96734 16.1583 3.60103L17.9713 5.41703L19.7843 3.60303C21.4238 1.9691 23.6441 1.05164 25.9588 1.05164C28.2735 1.05164 30.4938 1.9691 32.1333 3.60303C33.7674 5.24548 34.6848 7.46813 34.6848 9.78503C34.6848 12.1019 33.7674 14.3246 32.1333 15.967L19.1513 28.967C18.997 29.1228 18.8134 29.2463 18.611 29.3306C18.4086 29.4149 18.1915 29.4582 17.9723 29.458ZM9.9853 4.39303C9.27772 4.3897 8.57652 4.52685 7.92233 4.79652C7.26814 5.0662 6.67399 5.46303 6.1743 5.96403C5.16416 6.97914 4.59708 8.35295 4.59708 9.78503C4.59708 11.2171 5.16416 12.5909 6.1743 13.606L17.9743 25.421L29.7743 13.606C30.7238 12.5828 31.2402 11.2316 31.2151 9.83595C31.1901 8.44027 30.6255 7.10851 29.6399 6.12003C28.6542 5.13155 27.3241 4.56316 25.9285 4.53407C24.5329 4.50499 23.1803 5.01747 22.1543 5.96403L19.1543 8.96403C18.8353 9.26765 18.4117 9.43698 17.9713 9.43698C17.5309 9.43698 17.1073 9.26765 16.7883 8.96403L13.7943 5.96403C13.2947 5.4635 12.7008 5.06694 12.047 4.79729C11.3933 4.52764 10.6925 4.39024 9.9853 4.39303Z" fill="#4FAEAA" stroke="white" stroke-width="1.5"/>
</svg>
