<svg width="30" height="29" viewBox="0 0 30 29" fill="none" xmlns="http://www.w3.org/2000/svg">
<path d="M11.7513 27.7589L3.43734 27.7529C2.99606 27.7527 2.5728 27.5779 2.25993 27.2667C1.94706 26.9555 1.76998 26.5332 1.76734 26.0919L1.72634 17.7419C1.72528 17.5225 1.76746 17.305 1.85047 17.1019C1.93347 16.8987 2.05568 16.7139 2.2101 16.558C2.36452 16.4021 2.54815 16.2781 2.75048 16.1932C2.95281 16.1082 3.1699 16.064 3.38934 16.0629H3.39834C3.83961 16.0632 4.26287 16.238 4.57575 16.5492C4.88862 16.8604 5.0657 17.2827 5.06834 17.7239L5.09034 22.0319L10.5703 16.5509C10.886 16.2496 11.307 16.0838 11.7434 16.0888C12.1797 16.0938 12.5968 16.2693 12.9054 16.5778C13.2141 16.8863 13.3898 17.3034 13.395 17.7397C13.4002 18.1761 13.2345 18.5971 12.9333 18.9129L7.43334 24.4129H11.7533C12.1893 24.4236 12.6038 24.6043 12.9084 24.9164C13.213 25.2285 13.3835 25.6473 13.3835 26.0834C13.3835 26.5195 13.213 26.9384 12.9084 27.2505C12.6038 27.5626 12.1893 27.7433 11.7533 27.7539L11.7513 27.7589ZM26.7913 12.7239C26.3485 12.7239 25.9238 12.5482 25.6105 12.2352C25.2972 11.9223 25.1209 11.4978 25.1203 11.0549V6.73593L19.6203 12.2359C19.3059 12.5436 18.8828 12.7149 18.4429 12.7126C18.003 12.7103 17.5818 12.5346 17.2706 12.2237C16.9594 11.9127 16.7834 11.4916 16.7807 11.0517C16.778 10.6118 16.9489 10.1886 17.2563 9.87393L22.7363 4.38893L18.4263 4.36593C18.2069 4.36528 17.9897 4.3214 17.7873 4.23682C17.5848 4.15224 17.4009 4.0286 17.2462 3.87297C17.0915 3.71734 16.969 3.53276 16.8856 3.32978C16.8023 3.12679 16.7597 2.90937 16.7603 2.68993C16.761 2.47049 16.8049 2.25333 16.8894 2.05085C16.974 1.84837 17.0977 1.66452 17.2533 1.50982C17.4089 1.35512 17.5935 1.23259 17.7965 1.14922C17.9995 1.06585 18.2169 1.02328 18.4363 1.02393H18.4443L26.7953 1.06593C27.2367 1.06778 27.6594 1.24427 27.971 1.55682C28.2826 1.86938 28.4578 2.29258 28.4583 2.73393L28.4643 11.0479C28.4649 11.2677 28.4221 11.4854 28.3384 11.6885C28.2547 11.8917 28.1318 12.0764 27.9767 12.2321C27.8216 12.3878 27.6374 12.5113 27.4345 12.5957C27.2316 12.6801 27.0141 12.7237 26.7943 12.7239H26.7913Z" fill="white" stroke="#BABABA" stroke-width="1.5"/>
</svg>
